<svg width="123" height="56" viewBox="0 0 123 56" fill="none" xmlns="http://www.w3.org/2000/svg">
<path fill-rule="evenodd" clip-rule="evenodd" d="M30.2273 4.8H4.77273V51.2H30.2273V4.8ZM0 0V56H35V0H0Z" fill="#EB5757"/>
<path d="M44.6587 30.1753L46.3564 19H49.8195V34.7399H47.4655V23.4521L45.7452 34.7399H43.3912L41.5351 23.6095V34.7399H39.3622V19H42.8253L44.6587 30.1753Z" fill="black"/>
<path d="M54.1205 25.6332H57.5384V27.8818H54.1205V32.4913H58.4211V34.7399H51.6306V19H58.4211V21.2486H54.1205V25.6332Z" fill="black"/>
<path d="M66.8677 19V21.2036L62.137 32.4913H66.8677V34.7399H59.5792V32.5363L64.3099 21.2486H59.8056V19H66.8677Z" fill="black"/>
<path d="M78.0012 19H81.9397C83.1922 19 84.1202 19.3298 84.7238 19.9894C85.3425 20.6489 85.6518 21.6158 85.6518 22.89V30.8499C85.6518 32.1241 85.3425 33.091 84.7238 33.7505C84.1202 34.4101 83.1922 34.7399 81.9397 34.7399H78.0012V19ZM80.4911 21.2486V32.4913H81.8944C82.2868 32.4913 82.5961 32.3789 82.8225 32.1541C83.0488 31.9292 83.162 31.532 83.162 30.9623V22.7776C83.162 22.2079 83.0488 21.8107 82.8225 21.5858C82.5961 21.361 82.2868 21.2486 81.8944 21.2486H80.4911Z" fill="black"/>
<path d="M89.6175 19V31.1422C89.6175 31.7118 89.7307 32.1091 89.9571 32.3339C90.1985 32.5588 90.5154 32.6712 90.9077 32.6712C91.3001 32.6712 91.6094 32.5588 91.8358 32.3339C92.0772 32.1091 92.1979 31.7118 92.1979 31.1422V19H94.552V30.9848C94.552 32.259 94.2351 33.2409 93.6013 33.9304C92.9826 34.605 92.0621 34.9423 90.8398 34.9423C89.6175 34.9423 88.6895 34.605 88.0557 33.9304C87.437 33.2409 87.1277 32.259 87.1277 30.9848V19H89.6175Z" fill="black"/>
<path d="M39.0679 43.8578C39.0679 42.5836 39.3697 41.6092 39.9733 40.9347C40.592 40.2451 41.5125 39.9003 42.7348 39.9003C43.9571 39.9003 44.87 40.2451 45.4736 40.9347C46.0923 41.6092 46.4016 42.5836 46.4016 43.8578V44.3525H44.0476V43.7004C44.0476 43.1308 43.9344 42.7335 43.7081 42.5087C43.4968 42.2688 43.195 42.1489 42.8027 42.1489C42.4103 42.1489 42.101 42.2688 41.8746 42.5087C41.6634 42.7335 41.5577 43.1308 41.5577 43.7004C41.5577 44.24 41.6785 44.7197 41.9199 45.1395C42.1613 45.5442 42.4631 45.934 42.8253 46.3087C43.1875 46.6685 43.5723 47.0358 43.9797 47.4105C44.4022 47.7703 44.7945 48.1675 45.1567 48.6022C45.5189 49.037 45.8207 49.5317 46.0621 50.0863C46.3035 50.6409 46.4243 51.293 46.4243 52.0425C46.4243 53.3167 46.1074 54.2986 45.4736 54.9881C44.8549 55.6627 43.9344 56 42.7121 56C41.4898 56 40.5618 55.6627 39.928 54.9881C39.3093 54.2986 39 53.3167 39 52.0425V51.0757H41.354V52.1999C41.354 52.7696 41.4672 53.1668 41.6936 53.3917C41.935 53.6165 42.2519 53.729 42.6442 53.729C43.0366 53.729 43.3459 53.6165 43.5723 53.3917C43.8137 53.1668 43.9344 52.7696 43.9344 52.1999C43.9344 51.6603 43.8137 51.1881 43.5723 50.7833C43.3308 50.3636 43.029 49.9739 42.6669 49.6141C42.3047 49.2393 41.9124 48.8721 41.4898 48.5123C41.0824 48.1375 40.6976 47.7328 40.3355 47.2981C39.9733 46.8634 39.6715 46.3687 39.4301 45.814C39.1886 45.2594 39.0679 44.6073 39.0679 43.8578Z" fill="black"/>
<path d="M50.1369 52.1999C50.1369 52.7696 50.2501 53.1743 50.4764 53.4142C50.7179 53.639 51.0348 53.7514 51.4271 53.7514C51.8194 53.7514 52.1288 53.639 52.3551 53.4142C52.5966 53.1743 52.7173 52.7696 52.7173 52.1999V43.7004C52.7173 43.1308 52.5966 42.7335 52.3551 42.5087C52.1288 42.2688 51.8194 42.1489 51.4271 42.1489C51.0348 42.1489 50.7179 42.2688 50.4764 42.5087C50.2501 42.7335 50.1369 43.1308 50.1369 43.7004V52.1999ZM47.6471 43.8578C47.6471 42.5836 47.9715 41.6092 48.6204 40.9347C49.2692 40.2451 50.2048 39.9003 51.4271 39.9003C52.0607 39.9003 52.6172 39.993 53.0967 40.1782C53.5423 40.3504 53.9213 40.6025 54.2338 40.9347C54.8827 41.6092 55.2071 42.5836 55.2071 43.8578V52.0425C55.2071 53.3167 54.8827 54.2986 54.2338 54.9881C53.585 55.6627 52.6494 56 51.4271 56C50.2048 56 49.2692 55.6627 48.6204 54.9881C47.9715 54.2986 47.6471 53.3167 47.6471 52.0425V43.8578Z" fill="black"/>
<path d="M60.5826 40.0802C61.8803 40.0802 62.8159 40.38 63.3893 40.9796C63.9778 41.5793 64.2721 42.4862 64.2721 43.7004V44.2625C64.2721 45.072 64.1438 45.7391 63.8873 46.2637C63.6308 46.7884 63.2233 47.1782 62.665 47.433C63.344 47.6878 63.8194 48.1076 64.091 48.6922C64.3777 49.2618 64.5211 49.9664 64.5211 50.8058V52.0875C64.5211 53.3017 64.2042 54.2311 63.5704 54.8757C62.9366 55.5053 61.9935 55.8201 60.741 55.8201H56.8252V40.0802H60.5826ZM59.315 48.7372V53.5716H60.741C61.1635 53.5716 61.4804 53.4591 61.6917 53.2343C61.918 53.0094 62.0312 52.6047 62.0312 52.0201V50.6484C62.0312 49.9139 61.903 49.4117 61.6464 49.1419C61.405 48.8721 60.9976 48.7372 60.4241 48.7372H59.315ZM59.315 42.3288V46.4886H60.2883C60.7561 46.4886 61.1183 46.3687 61.3748 46.1288C61.6464 45.889 61.7822 45.4543 61.7822 44.8247V43.9477C61.7822 43.3781 61.6766 42.9659 61.4653 42.711C61.2692 42.4562 60.9523 42.3288 60.5147 42.3288H59.315Z" fill="black"/>
<path d="M68.3068 52.1999C68.3068 52.7696 68.4199 53.1743 68.6463 53.4142C68.8877 53.639 69.2046 53.7514 69.5969 53.7514C69.9893 53.7514 70.2986 53.639 70.525 53.4142C70.7664 53.1743 70.8871 52.7696 70.8871 52.1999V43.7004C70.8871 43.1308 70.7664 42.7335 70.525 42.5087C70.2986 42.2688 69.9893 42.1489 69.5969 42.1489C69.2046 42.1489 68.8877 42.2688 68.6463 42.5087C68.4199 42.7335 68.3068 43.1308 68.3068 43.7004V52.1999ZM65.8169 43.8578C65.8169 42.5836 66.1413 41.6092 66.7902 40.9347C67.4391 40.2451 68.3747 39.9003 69.5969 39.9003C70.8192 39.9003 71.7548 40.2451 72.4037 40.9347C73.0526 41.6092 73.377 42.5836 73.377 43.8578V52.0425C73.377 53.3167 73.0526 54.2986 72.4037 54.9881C71.7548 55.6627 70.8192 56 69.5969 56C68.3747 56 67.4391 55.6627 66.7902 54.9881C66.1413 54.2986 65.8169 53.3167 65.8169 52.0425V43.8578Z" fill="black"/>
<path d="M74.995 40.0802H77.4849V55.8201H74.995V40.0802Z" fill="black"/>
<path d="M86.5259 49.9514V52.0425C86.5259 53.3167 86.209 54.2986 85.5753 54.9881C84.9566 55.6627 84.0361 56 82.8138 56C81.5915 56 80.6635 55.6627 80.0297 54.9881C79.411 54.2986 79.1017 53.3167 79.1017 52.0425V43.8578C79.1017 42.5836 79.411 41.6092 80.0297 40.9347C80.6635 40.2451 81.5915 39.9003 82.8138 39.9003C84.0361 39.9003 84.9566 40.2451 85.5753 40.9347C86.209 41.6092 86.5259 42.5836 86.5259 43.8578V45.3868H84.1719V43.7004C84.1719 43.1308 84.0512 42.7335 83.8097 42.5087C83.5834 42.2688 83.274 42.1489 82.8817 42.1489C82.4894 42.1489 82.1725 42.2688 81.931 42.5087C81.7047 42.7335 81.5915 43.1308 81.5915 43.7004V52.1999C81.5915 52.7696 81.7047 53.1668 81.931 53.3917C82.1725 53.6165 82.4894 53.729 82.8817 53.729C83.274 53.729 83.5834 53.6165 83.8097 53.3917C84.0512 53.1668 84.1719 52.7696 84.1719 52.1999V49.9514H86.5259Z" fill="black"/>
<path d="M90.5265 55.8201H88.0366V49L89 48L88.0366 47V40.0802H90.5265V46.8259H93.3558V40.0802H95.891V55.8201H93.3558V49.0744H90.5265V55.8201Z" fill="black"/>
<path d="M100.186 46.7135H103.604V48.962H100.186V53.5716H104.487V55.8201H97.6963V40.0802H104.487V42.3288H100.186V46.7135Z" fill="black"/>
<path d="M113.25 49.9514V52.0425C113.25 53.3167 112.933 54.2986 112.3 54.9881C111.681 55.6627 110.76 56 109.538 56C108.316 56 107.388 55.6627 106.754 54.9881C106.135 54.2986 105.826 53.3167 105.826 52.0425V43.8578C105.826 42.5836 106.135 41.6092 106.754 40.9347C107.388 40.2451 108.316 39.9003 109.538 39.9003C110.76 39.9003 111.681 40.2451 112.3 40.9347C112.933 41.6092 113.25 42.5836 113.25 43.8578V45.3868H110.896V43.7004C110.896 43.1308 110.775 42.7335 110.534 42.5087C110.308 42.2688 109.998 42.1489 109.606 42.1489C109.214 42.1489 108.897 42.2688 108.655 42.5087C108.429 42.7335 108.316 43.1308 108.316 43.7004V52.1999C108.316 52.7696 108.429 53.1668 108.655 53.3917C108.897 53.6165 109.214 53.729 109.606 53.729C109.998 53.729 110.308 53.6165 110.534 53.3917C110.775 53.1668 110.896 52.7696 110.896 52.1999V49.9514H113.25Z" fill="black"/>
<path d="M118.02 49.5466L117.251 50.9857V55.8201H114.761V40.0802H117.251V46.9383L120.51 40.0802H123L119.537 47.0957L123 55.8201H120.442L118.02 49.5466Z" fill="black"/>
<path d="M71.1361 34.7399H68.6463V27.9198L69.6096 26.9198L68.6463 25.9198V19H71.1361V25.7457H73.9655V19H76.5006V34.7399H73.9655V27.9942H71.1361V34.7399Z" fill="black"/>
</svg>
