<svg width="45" height="45" viewBox="0 0 45 45" fill="none" xmlns="http://www.w3.org/2000/svg">
<path d="M30.1233 15.9591L20.1014 25.2746C19.7493 25.6019 19.5218 26.0414 19.4574 26.5178L19.1164 29.0474C19.0709 29.3849 18.596 29.4188 18.5029 29.0913L17.19 24.4785C17.0402 23.9521 17.2586 23.39 17.7247 23.103L29.868 15.6234C30.0859 15.4894 30.3108 15.7848 30.1233 15.9591ZM45 0V45H0V0H45ZM34.9859 10.8113L9.48615 20.6483C8.85751 20.8909 8.86233 21.7821 9.49357 22.0178L15.7067 24.3371L18.1119 32.0714C18.266 32.5667 18.872 32.7493 19.274 32.4215L22.7375 29.598C23.1005 29.302 23.6172 29.2875 23.9962 29.5627L30.2435 34.0984C30.6735 34.4107 31.2827 34.1752 31.3908 33.6548L35.9665 11.6434C36.0846 11.0757 35.527 10.6025 34.9859 10.8113Z" fill="#EF3124"/>
</svg>
