<svg width="45" height="45" viewBox="0 0 45 45" fill="none" xmlns="http://www.w3.org/2000/svg">
<path d="M32.5716 14.8802C32.3646 14.3192 32.0343 13.8115 31.6052 13.3947C31.1884 12.9655 30.6809 12.6352 30.1196 12.4282C29.6644 12.2514 28.9805 12.0409 27.7208 11.9836C26.3582 11.9215 25.9496 11.9081 22.4999 11.9081C19.0499 11.9081 18.6413 11.9211 17.279 11.9833C16.0193 12.0409 15.3351 12.2514 14.8802 12.4282C14.3189 12.6352 13.8111 12.9655 13.3946 13.3947C12.9655 13.8115 12.6352 14.3189 12.4278 14.8802C12.251 15.3355 12.0406 16.0197 11.9832 17.2794C11.9211 18.6417 11.9077 19.0502 11.9077 22.5003C11.9077 25.95 11.9211 26.3585 11.9832 27.7212C12.0406 28.9808 12.251 29.6647 12.4278 30.12C12.6352 30.6813 12.9651 31.1887 13.3943 31.6055C13.8111 32.0347 14.3185 32.365 14.8799 32.572C15.3351 32.7491 16.0193 32.9596 17.279 33.0169C18.6413 33.0791 19.0495 33.0921 22.4996 33.0921C25.95 33.0921 26.3585 33.0791 27.7205 33.0169C28.9801 32.9596 29.6644 32.7491 30.1196 32.572C31.2464 32.1373 32.137 31.2468 32.5716 30.12C32.7484 29.6647 32.9589 28.9808 33.0166 27.7212C33.0787 26.3585 33.0918 25.95 33.0918 22.5003C33.0918 19.0502 33.0787 18.6417 33.0166 17.2794C32.9592 16.0197 32.7488 15.3355 32.5716 14.8802ZM22.4999 29.1343C18.8356 29.1343 15.8652 26.1642 15.8652 22.4999C15.8652 18.8356 18.8356 15.8656 22.4999 15.8656C26.1638 15.8656 29.1343 18.8356 29.1343 22.4999C29.1343 26.1642 26.1638 29.1343 22.4999 29.1343ZM29.3966 17.1537C28.5403 17.1537 27.8461 16.4595 27.8461 15.6033C27.8461 14.747 28.5403 14.0528 29.3966 14.0528C30.2528 14.0528 30.947 14.747 30.947 15.6033C30.9467 16.4595 30.2528 17.1537 29.3966 17.1537Z" fill="#181818"/>
<path d="M26.8066 22.5C26.8066 24.8785 24.8785 26.8066 22.5 26.8066C20.1215 26.8066 18.1934 24.8785 18.1934 22.5C18.1934 20.1215 20.1215 18.1934 22.5 18.1934C24.8785 18.1934 26.8066 20.1215 26.8066 22.5Z" fill="#181818"/>
<path d="M41.7546 0H3.24543C1.45294 0 0 1.45294 0 3.24543V41.7546C0 43.5471 1.45294 45 3.24543 45H41.7546C43.5471 45 45 43.5471 45 41.7546V3.24543C45 1.45294 43.5471 0 41.7546 0V0ZM35.342 27.8267C35.2795 29.202 35.0608 30.141 34.7415 30.9629C34.0703 32.6984 32.6984 34.0703 30.9629 34.7415C30.1413 35.0608 29.202 35.2792 27.827 35.342C26.4492 35.4048 26.0091 35.4199 22.5003 35.4199C18.9912 35.4199 18.5514 35.4048 17.1733 35.342C15.7983 35.2792 14.859 35.0608 14.0374 34.7415C13.175 34.4171 12.3943 33.9086 11.7488 33.2512C11.0917 32.606 10.5833 31.825 10.2588 30.9629C9.93954 30.1413 9.72084 29.202 9.65836 27.827C9.59484 26.4489 9.58008 26.0088 9.58008 22.5C9.58008 18.9912 9.59484 18.5511 9.65801 17.1733C9.7205 15.798 9.93885 14.859 10.2581 14.0371C10.5826 13.175 11.0914 12.394 11.7488 11.7488C12.394 11.0914 13.175 10.5829 14.0371 10.2585C14.859 9.93919 15.798 9.72084 17.1733 9.65801C18.5511 9.59518 18.9912 9.58008 22.5 9.58008C26.0088 9.58008 26.4489 9.59518 27.8267 9.65836C29.202 9.72084 30.141 9.93919 30.9629 10.2581C31.825 10.5826 32.606 11.0914 33.2515 11.7488C33.9086 12.3943 34.4174 13.175 34.7415 14.0371C35.0611 14.859 35.2795 15.798 35.3423 17.1733C35.4052 18.5511 35.4199 18.9912 35.4199 22.5C35.4199 26.0088 35.4052 26.4489 35.342 27.8267Z" fill="#181818"/>
</svg>
