<svg width="45" height="45" viewBox="0 0 45 45" fill="none" xmlns="http://www.w3.org/2000/svg">
<path fill-rule="evenodd" clip-rule="evenodd" d="M0 0V45H45V0H0ZM33.735 24.8961C34.768 25.9039 35.8604 26.8527 36.7876 27.9669C37.1972 28.4592 37.5847 28.967 37.88 29.5375C38.2993 30.3548 37.9193 31.2503 37.1892 31.2996L32.6521 31.2976C31.481 31.3939 30.5478 30.9217 29.7607 30.1205C29.1349 29.4826 28.5499 28.7998 27.9457 28.1402C27.6998 27.8686 27.4398 27.6147 27.1308 27.4121C26.511 27.0105 25.9734 27.1324 25.6191 27.778C25.2588 28.4355 25.1742 29.1656 25.141 29.8979C25.0916 30.9667 24.7691 31.2463 23.6963 31.2977C21.401 31.4041 19.2242 31.0553 17.2026 29.8999C15.4172 28.8805 14.0356 27.4393 12.8327 25.8097C10.4886 22.6326 8.69321 19.1447 7.08122 15.5564C6.71687 14.7476 6.98301 14.3143 7.87233 14.2986C9.35486 14.2694 10.8368 14.2729 12.3172 14.2966C12.9195 14.3067 13.319 14.6509 13.5494 15.2198C14.3505 17.1885 15.3306 19.0621 16.5607 20.8005C16.8897 21.263 17.2243 21.7236 17.6985 22.0502C18.224 22.4125 18.6256 22.2941 18.8735 21.7055C19.0312 21.3317 19.1003 20.9341 19.1335 20.5344C19.2514 19.1663 19.2655 17.7968 19.0625 16.4327C18.9365 15.5801 18.4544 15.0288 17.6042 14.8676C17.1708 14.7849 17.2358 14.6257 17.4445 14.3773C17.8108 13.9505 18.1555 13.6844 18.8383 13.6844H23.966C24.7747 13.8421 24.9561 14.2064 25.066 15.0192L25.07 20.7178C25.0604 21.0327 25.2278 21.9654 25.7926 22.172C26.2451 22.3217 26.5464 21.9573 26.818 21.6701C28.0461 20.367 28.9223 18.8261 29.7053 17.2317C30.052 16.5308 30.3514 15.8027 30.6426 15.074C30.8572 14.5348 31.1918 14.2693 31.8001 14.2788L36.7368 14.2849C36.8824 14.2849 37.0321 14.2849 37.1757 14.3085C38.0061 14.4521 38.2345 14.8104 37.9764 15.6232C37.5733 16.8966 36.7837 17.9597 36.0142 19.0245C35.1893 20.1644 34.3116 21.2643 33.4928 22.4102C32.7449 23.4594 32.8038 23.987 33.735 24.8961Z" fill="#181818"/>
</svg>
